<?xml version="1.0" standalone="no"?><!DOCTYPE svg PUBLIC "-//W3C//DTD SVG 1.1//EN" "http://www.w3.org/Graphics/SVG/1.1/DTD/svg11.dtd"><svg t="1652345906133" class="icon" viewBox="0 0 1024 1024" version="1.1" xmlns="http://www.w3.org/2000/svg" p-id="1446" xmlns:xlink="http://www.w3.org/1999/xlink" width="200" height="200"><defs><style type="text/css">@font-face { font-family: feedback-iconfont; src: url("//at.alicdn.com/t/font_1031158_u69w8yhxdu.woff2?t=1630033759944") format("woff2"), url("//at.alicdn.com/t/font_1031158_u69w8yhxdu.woff?t=1630033759944") format("woff"), url("//at.alicdn.com/t/font_1031158_u69w8yhxdu.ttf?t=1630033759944") format("truetype"); }
</style></defs><path d="M512 64a448 448 0 0 0-448 448v384h160A96 96 0 0 0 320 800v-128A96 96 0 0 0 224 576H128V512c0-211.712 172.288-384 384-384s384 172.288 384 384v64h-96a96 96 0 0 0-96 96v128a96 96 0 0 0 96 96H960V512a448 448 0 0 0-448-448z m-288 576a32 32 0 0 1 32 32v128a32 32 0 0 1-32 32H128v-192h96zM896 832h-96a32 32 0 0 1-32-32v-128a32 32 0 0 1 32-32H896v192z" fill="" p-id="1447"></path></svg>