<?xml version="1.0" standalone="no"?><!DOCTYPE svg PUBLIC "-//W3C//DTD SVG 1.1//EN" "http://www.w3.org/Graphics/SVG/1.1/DTD/svg11.dtd"><svg t="1627813596500" class="icon" viewBox="0 0 1024 1024" version="1.1" xmlns="http://www.w3.org/2000/svg" p-id="5809" width="128" height="128" xmlns:xlink="http://www.w3.org/1999/xlink"><defs><style type="text/css"></style></defs><path d="M586.0864 463.744l68.49536 20.0192-112.85504 386.20672-68.5056-20.0192z" fill="#5CB9FF" p-id="5810"></path><path d="M541.83936 887.92064c-1.68448 0-3.37408-0.23552-5.02272-0.72192l-68.49536-20.0192a17.95072 17.95072 0 0 1-12.1856-22.25152l112.58368-386.27328a17.93024 17.93024 0 0 1 22.2208-12.20096l68.50048 20.01408a17.94048 17.94048 0 0 1 12.18048 22.25664l-112.58368 386.27328a17.93536 17.93536 0 0 1-17.19808 12.92288z m-46.27456-50.16064l34.08896 9.9584 102.53824-351.81568-34.09408-9.96352-102.53312 351.8208z" fill="" p-id="5811"></path><path d="M868.74624 338.02752c-30.8992 106.01472-141.7728 166.87104-247.64928 135.936S454.44608 332.00128 485.34528 225.98656s141.7728-166.87104 247.64928-135.936 166.65088 141.96224 135.75168 247.97696z" fill="#FF5757" p-id="5812"></path><path d="M676.95104 499.93728c-20.13696 0-40.58624-2.82112-60.87168-8.75008-115.19488-33.664-181.5552-154.89024-147.93728-270.22848 16.2816-55.87456 53.3248-102.05184 104.29952-130.03264 50.95936-27.97568 109.76256-34.4064 165.57056-18.0992 115.18976 33.664 181.5552 154.88512 147.93728 270.22848-27.6992 95.03232-114.76992 156.88192-208.9984 156.88192z m-0.16384-400.03072c-30.13632 0-59.96032 7.58272-87.12192 22.49216-42.5728 23.3728-73.51808 61.94176-87.1168 108.61056-28.0832 96.34816 27.35104 197.60128 123.5712 225.72544 96.24576 28.12928 197.34016-27.39712 225.42336-123.73504 28.07808-96.34816-27.35616-197.60128-123.57632-225.72032a182.31296 182.31296 0 0 0-51.17952-7.3728z m191.95904 238.12096h0.0512-0.0512zM942.08 960H81.92c-9.89696 0-17.92-8.0384-17.92-17.9456a17.93536 17.93536 0 0 1 17.92-17.9456h860.16c9.89696 0 17.92 8.0384 17.92 17.9456a17.94048 17.94048 0 0 1-17.92 17.9456z" fill="" p-id="5813"></path><path d="M698.93632 816.4864h-373.9136c-69.25312 0-125.3888 56.1408-125.3888 125.3888v0.1792h624.69632v-0.1792c0-69.248-56.1408-125.3888-125.39392-125.3888z" fill="#FFDD50" p-id="5814"></path><path d="M824.33024 960H199.63392c-9.89696 0-17.92-8.0384-17.92-17.9456 0-80.47104 63.93344-143.5136 145.55136-143.5136h368.85504c81.94048 0 146.13504 63.03744 146.13504 143.5136a17.9456 17.9456 0 0 1-17.92512 17.9456z m-605.32224-35.8912h585.93792c-8.51456-51.51744-53.26336-89.6768-108.83072-89.6768H327.26528c-55.27552 0-99.78368 38.15936-108.25728 89.6768z" fill="" p-id="5815"></path></svg>