<?xml version="1.0" standalone="no"?><!DOCTYPE svg PUBLIC "-//W3C//DTD SVG 1.1//EN" "http://www.w3.org/Graphics/SVG/1.1/DTD/svg11.dtd"><svg t="1627807999526" class="icon" viewBox="0 0 1024 1024" version="1.1" xmlns="http://www.w3.org/2000/svg" p-id="5087" xmlns:xlink="http://www.w3.org/1999/xlink" width="32" height="32"><defs><style type="text/css"></style></defs><path d="M526.930629 979.532693c-221.872849 0-402.361891-180.512226-402.361891-402.361891 0-221.849665 180.489042-402.361891 402.361891-402.361891s402.361891 180.512226 402.361891 402.361891C929.292519 799.020467 748.803478 979.532693 526.930629 979.532693zM526.930629 221.154139c-196.30067 0-355.993479 159.692809-355.993479 355.993479s159.715993 355.993479 355.993479 355.993479 355.993479-159.715993 355.993479-355.993479S723.208114 221.154139 526.930629 221.154139z" p-id="5088"></path><path d="M404.28618 505.43887m-37.882992 0a1.634 1.634 0 1 0 75.765984 0 1.634 1.634 0 1 0-75.765984 0Z" p-id="5089"></path><path d="M404.355733 554.983517c-27.310994 0-49.544648-22.210469-49.544648-49.544648 0-27.310994 22.233653-49.521464 49.544648-49.521464 27.241442 0 49.405542 22.210469 49.405542 49.521464C453.761275 532.749864 431.597174 554.983517 404.355733 554.983517zM404.355733 479.101612c-14.536497 0-26.360442 11.800761-26.360442 26.337258 0 14.536497 11.823945 26.360442 26.360442 26.360442 14.466944 0 26.221337-11.823945 26.221337-26.360442C430.577069 490.902373 418.822677 479.101612 404.355733 479.101612z" p-id="5090"></path><path d="M687.411701 505.43887c0 20.935338-16.92447 37.952545-37.882992 37.952545-20.842601 0-37.882992-16.994023-37.882992-37.952545 0-20.935338 17.017207-37.929361 37.882992-37.929361C670.487231 467.509509 687.411701 484.503532 687.411701 505.43887z" p-id="5091"></path><path d="M649.551893 554.983517c-27.28781 0-49.475095-22.210469-49.475095-49.544648 0-27.310994 22.187285-49.521464 49.475095-49.521464s49.475095 22.210469 49.475095 49.521464C699.003804 532.749864 676.816519 554.983517 649.551893 554.983517zM649.551893 479.101612c-14.490129 0-26.290889 11.800761-26.290889 26.337258 0 14.536497 11.800761 26.360442 26.290889 26.360442s26.290889-11.823945 26.290889-26.360442C675.819598 490.902373 664.042021 479.101612 649.551893 479.101612z" p-id="5092"></path><path d="M475.693534 720.750589c-7.766709 0-16.113023-1.553342-24.923021-4.68321-5.239631-1.831552-7.952183-7.511683-6.097446-12.704945 1.738815-5.216446 7.418946-7.952183 12.728129-6.074262 15.000181 5.262815 26.731389 4.52092 35.865966-1.924289 20.147075-14.44376 24.204311-55.363883 24.042021-69.90038-0.069553-5.541025 4.358631-10.038761 9.92284-10.08513 4.938236 0.672342 10.038761 4.335446 10.08513 9.853287 0 2.527078 0.347763 62.829198-32.318783 86.222061C496.39703 717.690274 486.59011 720.750589 475.693534 720.750589z" p-id="5093"></path><path d="M475.693534 732.342692c-9.088209 0-18.779207-1.808368-28.794784-5.332367-5.40192-1.877921-9.806919-5.796051-12.287629-11.012498s-2.782105-11.08205-0.834631-16.530339c3.570368-10.780656 16.344865-17.063575 27.496468-13.12226 11.08205 3.894947 19.242891 3.871762 25.317153-0.463684 13.400471-9.598261 19.358812-41.662018 19.150154-60.325303-0.069553-5.749683 2.109763-11.197971 6.143815-15.32476 4.057236-4.126789 9.48234-6.422025 15.278392-6.468393 13.214997 1.669263 21.677232 10.618366 21.746785 21.352654 0 11.661655-1.715631 70.364064-37.164282 95.727586C501.242529 728.470929 489.117189 732.342692 475.693534 732.342692z" p-id="5094"></path><path d="M572.788988 720.681036c-8.32313 0-16.089839-1.738815-23.045101-5.355552-14.745155-7.581235-25.456258-22.48868-32.086941-44.397754-1.530158-5.332367 1.506973-10.850208 6.792972-12.449918 5.309183-1.530158 10.827024 1.414237 12.40355 6.700235 4.938236 16.553523 12.287629 27.473284 21.955443 32.365151 8.415867 4.358631 19.289259 4.196341 32.272414-0.301395 5.239631-1.877921 10.942945 0.927368 12.704945 6.074262 1.854736 5.285999-0.881 10.919761-6.143815 12.774497C588.878826 719.150878 580.602065 720.681036 572.788988 720.681036z" p-id="5095"></path><path d="M572.788988 732.273139c-10.36334 0-19.915233-2.248868-28.423836-6.700235-17.480891-8.972288-30.232204-26.244521-37.81344-51.306647-3.338526-11.499366 3.222605-23.508785 14.559681-26.916863 12.009419-3.408078 23.508785 3.338526 26.824126 14.466944 3.964499 13.261366 9.528709 22.024995 16.113023 25.386705 5.587394 2.874842 13.400471 2.48071 23.20739-0.927368 10.525629-3.779026 23.671074 2.272052 27.473284 13.261366 3.918131 11.105235-1.993842 23.4856-13.191813 27.473284C591.54501 730.511139 581.90038 732.273139 572.788988 732.273139z" p-id="5096"></path><path d="M564.465858 635.618185c0 18.199602-14.675602 32.875204-32.875204 32.875204l-10.340156 0c-18.153233 0-32.875204-14.675602-32.875204-32.875204l0 0c0-18.130049 14.721971-32.828835 32.875204-32.828835l10.340156 0C549.790255 602.78935 564.465858 617.464952 564.465858 635.618185L564.465858 635.618185z" p-id="5097"></path><path d="M531.590654 680.085492l-10.340156 0c-24.52889 0-44.467307-19.961601-44.467307-44.467307 0-24.505705 19.938417-44.420938 44.467307-44.420938l10.340156 0c24.52889 0 44.467307 19.915233 44.467307 44.420938C576.057961 660.123891 556.096359 680.085492 531.590654 680.085492zM521.227314 614.381453c-11.731208 0-21.283101 9.528709-21.283101 21.236732 0 11.731208 9.551893 21.283101 21.283101 21.283101l10.340156 0c11.731208 0 21.283101-9.551893 21.283101-21.283101 0-11.708024-9.551893-21.236732-21.283101-21.236732L521.227314 614.381453z" p-id="5098"></path><path d="M357.500453 911.440681c-21.723601 25.108495-48.686832 45.881543-78.107589 50.958884-25.943126 4.474552-58.911067-0.347763-84.460062-13.748234 4.938236-6.12063 9.296867-12.612208 12.774497-19.729759 11.777577-24.134758 10.224235-54.830647-15.533418-68.416591-28.215178-14.861076-49.591016 13.446839-51.839884 38.97265-1.970657 22.349574 6.839341 39.389966 21.120811 52.164463-29.722152 23.276943-72.775222 34.984966-108.849846 35.425466-13.701866 0.162289-13.701866 21.399022 0 21.236732 41.754755-0.510053 92.922297-14.629234 127.072632-43.957254 23.276943 12.774497 52.581779 18.732838 75.812353 20.100706 47.759464 2.805289 90.928455-26.314074 122.343054-63.942039C370.71545 917.468575 363.876109 914.454628 357.500453 911.440681zM180.234016 878.565477c27.913784 5.378736 9.018656 41.986597-3.19942 57.93733-2.295236-1.970657-4.706394-3.871762-6.700235-6.051078C159.576888 918.697337 154.777758 873.627241 180.234016 878.565477z" p-id="5099"></path><path d="M52.442673 1019.873211c-12.287629 0-21.630864-9.435972-21.723601-21.932259-0.069553-12.658576 9.273682-22.32639 21.746785-22.465495 32.620178-0.394131 66.42275-10.038761 91.368955-25.641732-11.568919-14.675602-16.762181-32.179678-15.04655-51.353016 2.341605-26.383626 20.935338-53.648252 48.01449-53.648252 6.932078 0 13.933708 1.831552 20.773048 5.448288 32.063757 16.901286 34.590835 54.946568 20.541206 83.764535-1.622894 3.338526-3.431262 6.630683-5.494657 9.876472 20.262996 7.673972 45.070096 10.502445 64.799855 7.094367 29.722152-5.123709 55.17841-28.44702 71.314617-47.110306l5.749683-6.653867 7.952183 3.755841c6.259736 2.944394 12.959971 5.888788 19.892049 8.833182l14.420576 6.074262-10.038761 12.032603c-36.793335 44.049991-81.14472 68.30067-124.893316 68.30067l0 0c-2.341605 0-4.68321-0.069553-7.047999-0.208658-12.936787-0.765079-44.560043-4.010868-73.679406-17.898207-38.833545 30.023546-91.137113 41.337439-128.394131 41.801123L52.442673 1019.942764zM176.547727 889.786633c-0.71871 0-1.066473 0-1.808368 1.715631-2.782105 6.306104-1.437421 18.014128 1.182394 25.433074 5.494657-10.154682 8.462235-20.031154 6.792972-24.436153-0.185474-0.486868-0.672342-1.808368-4.660025-2.573447L176.547727 889.786633z" p-id="5100"></path><path d="M773.633762 316.835356 719.220431 149.769969 692.118095 233.117189 647.998551 218.766166 719.220431 0 817.753306 302.461148Z" p-id="5101"></path><path d="M278.164101 316.835356 234.067741 302.461148 332.554247 0 403.776128 218.766166 359.679768 233.117189 332.554247 149.769969Z" p-id="5102"></path></svg>