<?xml version="1.0" standalone="no"?><!DOCTYPE svg PUBLIC "-//W3C//DTD SVG 1.1//EN" "http://www.w3.org/Graphics/SVG/1.1/DTD/svg11.dtd"><svg t="1632899285840" class="icon" viewBox="0 0 1024 1024" version="1.1" xmlns="http://www.w3.org/2000/svg" p-id="2270" xmlns:xlink="http://www.w3.org/1999/xlink" width="200" height="200"><defs><style type="text/css"></style></defs><path d="M878 811.7H146c-12.6 0-23.9-7.4-29-18.9-5.1-11.5-2.9-24.9 5.6-34.1l56.9-62.2V497.7c0-176.2 149.1-319.5 332.4-319.5s332.4 143.3 332.4 319.5v198.8l56.9 62.2c8.5 9.3 10.7 22.7 5.6 34.1-4.9 11.5-16.3 18.9-28.8 18.9z m-660-63.3h588l-16.7-18.2c-5.4-5.8-8.3-13.5-8.3-21.4V497.7c0-141.3-120.7-256.2-269-256.2-148.4 0-269 114.9-269 256.2v211.1c0 7.9-3 15.6-8.3 21.4L218 748.4z" fill="#666666" p-id="2271"></path><path d="M512 940.3c-56.8 0-103-46.2-103-103 0-17.5 14.2-31.7 31.7-31.7s31.7 14.2 31.7 31.7c0 21.8 17.8 39.6 39.6 39.6s39.6-17.8 39.6-39.6c0-17.5 14.2-31.7 31.7-31.7s31.7 14.2 31.7 31.7c0 56.8-46.2 103-103 103zM558.2 239.5c-17.5 0-31.7-14.2-31.7-31.7v-46.2c0-7.9-6.7-14.5-14.5-14.5-7.9 0-14.5 6.7-14.5 14.5v46.2c0 17.5-14.2 31.7-31.7 31.7s-31.7-14.2-31.7-31.7v-46.2c0-42.9 34.9-77.9 77.9-77.9 42.9 0 77.9 34.9 77.9 77.9v46.2c0 17.5-14.2 31.7-31.7 31.7z" fill="#666666" p-id="2272"></path><path d="M362.3 500.3c-1.5 0-3-0.1-4.6-0.3-17.3-2.5-29.3-18.6-26.8-35.9 7.5-52.2 55-150.8 180.7-150.8h0.5c144.4 0.3 189.2 114 189.2 155.3 0 17.5-14.2 31.7-31.7 31.7s-31.7-14.2-31.7-31.7c0-0.8-14.4-91.8-126-92h-0.3c-102.9 0-117.5 92.6-118 96.5-2.3 15.8-15.9 27.2-31.3 27.2z" fill="#666666" p-id="2273"></path><path d="M409.4 759h62.4v79h-62.4zM552 759h62.9v79H552z" fill="#666666" p-id="2274"></path></svg>