<?xml version="1.0" standalone="no"?><!DOCTYPE svg PUBLIC "-//W3C//DTD SVG 1.1//EN" "http://www.w3.org/Graphics/SVG/1.1/DTD/svg11.dtd"><svg t="1632884036263" class="icon" viewBox="0 0 1024 1024" version="1.1" xmlns="http://www.w3.org/2000/svg" p-id="1758" xmlns:xlink="http://www.w3.org/1999/xlink" width="200" height="200"><defs><style type="text/css"></style></defs><path d="M519.2 930.3c-230.7 0-418.3-187.6-418.3-418.3 0-230.6 187.6-418.3 418.3-418.3 230.6 0 418.3 187.6 418.3 418.3-0.1 230.6-187.7 418.3-418.3 418.3z m0-773.2c-195.7 0-354.9 159.2-354.9 354.9s159.2 354.9 354.9 354.9S874.1 707.7 874.1 512 714.9 157.1 519.2 157.1z" fill="#f4ea2a" p-id="1759"></path><path d="M694.6 719.1c-8.1 0-16.2-3.1-22.4-9.3L321.3 359c-12.4-12.4-12.4-32.4 0-44.8 12.4-12.4 32.4-12.4 44.8 0L717 665c12.4 12.4 12.4 32.4 0 44.8-6.2 6.2-14.3 9.3-22.4 9.3z" fill="#f4ea2a" p-id="1760"></path><path d="M343.7 719.1c-8.1 0-16.2-3.1-22.4-9.3-12.4-12.4-12.4-32.4 0-44.8l350.8-350.8c12.4-12.4 32.4-12.4 44.8 0 12.4 12.4 12.4 32.4 0 44.8L366.1 709.8c-6.2 6.2-14.3 9.3-22.4 9.3z" fill="#f4ea2a" p-id="1761"></path></svg>