<?xml version="1.0" standalone="no"?><!DOCTYPE svg PUBLIC "-//W3C//DTD SVG 1.1//EN" "http://www.w3.org/Graphics/SVG/1.1/DTD/svg11.dtd"><svg t="1632898709716" class="icon" viewBox="0 0 1024 1024" version="1.1" xmlns="http://www.w3.org/2000/svg" p-id="2134" xmlns:xlink="http://www.w3.org/1999/xlink" width="200" height="200"><defs><style type="text/css"></style></defs><path d="M518.5 922.2c-230.1 0-417.3-187.2-417.3-417.3S288.4 87.6 518.5 87.6s417.3 187.2 417.3 417.3-187.2 417.3-417.3 417.3z m0-771.3c-195.2 0-354 158.8-354 354s158.8 354 354 354 354-158.8 354-354-158.9-354-354-354z" fill="#666666" p-id="2135"></path><path d="M410.2 711.9c-5.3 0-10.5-1.3-15.3-4a31.63 31.63 0 0 1-16.3-27.7V329.5c0-11.1 5.8-21.4 15.4-27.2 9.5-5.7 21.4-6 31.2-0.8L727 462.8c10 5.3 16.3 15.5 16.7 26.8 0.4 11.3-5.3 21.9-14.8 27.9L427 707c-5.1 3.2-10.9 4.9-16.8 4.9z m31.7-329.6v240.6l207.1-130-207.1-110.6z" fill="#666666" p-id="2136"></path></svg>