<?xml version="1.0" standalone="no"?><!DOCTYPE svg PUBLIC "-//W3C//DTD SVG 1.1//EN" "http://www.w3.org/Graphics/SVG/1.1/DTD/svg11.dtd"><svg t="1617757710454" class="icon" viewBox="0 0 1024 1024" version="1.1" xmlns="http://www.w3.org/2000/svg" p-id="1399" width="32" height="32" xmlns:xlink="http://www.w3.org/1999/xlink"><defs><style type="text/css"></style></defs><path d="M748.475635 578.904639c-48.11409-113.631149-115.166705-242.617859-186.314137-341.917152-24.568897-34.805938-51.185202-67.564467-77.801507-103.905961-14.331857 17.914821-27.640009 34.805938-39.924458 51.697055-68.588171 90.597808-133.593378 211.906738-186.825989 314.277142-22.009637 41.971866-41.460014 84.967436-55.280018 131.034118-16.379265 62.445947-24.057045 146.389679 15.867412 228.286003 11.260745 22.009637 25.080749 41.971866 41.460014 62.445946 45.042978 52.208906 102.370405 85.479288 168.399316 97.763737 79.337064 14.331857 156.114867 0.511852 223.167482-45.042978 68.076319-46.066682 110.560037-110.560037 126.42745-191.432657 14.843709-72.171135-2.047408-138.200046-29.175565-203.205253zM445.971089 387.983834c-22.009637 77.801508-35.31779 156.114867-55.280019 233.916375-12.284449 45.55483-18.426673 92.645216-14.331856 140.247454 4.094816 49.137794-6.142224 96.740032 9.725188 143.318567 1.023704 3.582964 2.047408 8.189632 4.094816 16.379264-26.616305-22.521489-54.768167-35.829642-73.706691-62.445946-22.521489-30.199269-37.87705-63.469651-45.55483-98.787441-11.260745-49.137794-6.142224-98.275589 16.379265-143.318567 35.31779-68.076319 72.171135-134.617082 108.512629-201.669697 17.914821-33.270382 42.483718-71.147431 60.398538-104.929665 1.023704 0 2.047408 0.511852 3.071113 0.511852-6.654076 24.568897-7.165928 53.744462-13.308153 76.777804z m377.234941-243.641563c-16.379265-38.900754-39.412606-73.706691-64.493355-108.512629-9.213336-12.284449-17.402969-23.033341-27.128157-35.829642-4.606668 5.630372-9.725188 12.284449-13.820005 17.402969-23.545193 31.222973-46.066682 63.981503-64.493354 98.78744-7.67778 14.331857-14.331857 29.175565-18.938525 45.042978-5.11852 21.497785-8.189632 50.67335 5.11852 78.825212 3.582964 7.67778 9.213336 14.843709 14.331857 21.497785 15.355561 17.914821 35.31779 29.687417 57.839278 33.270382 27.640009 4.606668 53.744462 0.511852 76.777804-15.355561 23.545193-15.867413 37.87705-38.388902 44.019274-66.028911 6.142224-24.057045 0.511852-47.602238-9.213337-69.100023z m-91.621512-39.412606c-7.67778 27.128157-10.23704 27.128157-16.891117 54.256314-3.582964 15.867413-6.142224 31.734825-4.606668 48.625943 5.11852 18.426673 13.820005 26.616305 26.104453 36.341493 0.511852 1.535556 25.080749 19.450377 26.104454 22.521489-25.592601 9.725188-67.052615-0.511852-85.479288-25.080749-7.67778-10.748892-13.308153-22.009637-15.867413-34.294085-3.582964-16.891117-2.047408-34.294086 5.11852-49.649647 12.284449-23.545193 24.568897-46.066682 37.365198-69.100023 5.630372-11.772597 14.843709-27.128157 29.687417-34.294086h1.023704c4.094816 14.843709-2.047408 48.625942-2.55926 50.673351z" p-id="1400"></path></svg>