<?xml version="1.0" standalone="no"?><!DOCTYPE svg PUBLIC "-//W3C//DTD SVG 1.1//EN" "http://www.w3.org/Graphics/SVG/1.1/DTD/svg11.dtd"><svg t="1617758062826" class="icon" viewBox="0 0 1024 1024" version="1.1" xmlns="http://www.w3.org/2000/svg" p-id="1884" width="16" height="16" xmlns:xlink="http://www.w3.org/1999/xlink"><defs><style type="text/css"></style></defs><path d="M785.4592 576.3072c-55.6544-109.2096-133.12-233.1136-215.4496-328.5504-28.416-33.4336-59.1872-64.9216-89.9584-99.84-16.5888 17.2032-32 33.4336-46.08 49.664-79.36 87.04-154.5216 203.6224-216.064 302.08a653.1072 653.1072 0 0 0-63.9488 125.9008c-18.944 60.0064-27.8016 140.6464 18.3808 219.3408a353.8944 353.8944 0 0 0 47.8208 59.904c52.0704 50.176 118.3744 81.92 194.56 93.952 91.7504 13.7728 180.5312 0.4608 258.0992-43.3152 78.6944-44.2368 128-106.1888 146.176-183.9104 17.152-69.3248-2.3552-132.8128-33.7408-195.2256zM435.6096 392.8576c-25.6 74.752-40.96 149.9648-63.8976 224.7168a326.2976 326.2976 0 0 0-16.5888 134.7584c4.7616 47.2064-7.1168 92.9792 11.264 137.728 1.1776 3.4304 2.3552 7.8848 4.7104 15.7184-30.72-21.6064-63.3344-34.4064-85.248-60.0064a229.376 229.376 0 0 1-52.6848-94.9248 171.6224 171.6224 0 0 1 18.944-137.6768c40.96-65.4336 83.5072-129.3312 125.4912-193.792 20.48-31.9488 49.152-68.352 69.888-100.8128 1.1776 0 2.3552 0.512 3.5328 0.512-7.68 23.6032-8.2944 51.6096-15.36 73.7792zM871.8848 158.72c-18.944-37.376-45.568-70.8096-74.5984-104.2432-10.6496-11.776-20.1216-22.1184-31.3344-34.4064-5.12 5.12-11.264 11.776-16.0256 16.6912a720.6912 720.6912 0 0 0-74.5472 94.9248 204.8 204.8 0 0 0-21.9136 43.264c-5.9392 20.48-9.472 48.6912 5.9392 75.776A118.8864 118.8864 0 0 0 675.84 271.36a117.76 117.76 0 0 0 66.9184 31.9488c31.9488 4.4544 62.1568 0.512 88.7808-14.7456A100.864 100.864 0 0 0 882.5344 225.28c7.1168-23.0912 0.6144-45.7216-10.6496-66.56z m-105.9328-37.8368c-8.9088 26.0608-11.8784 26.0608-19.5584 52.1216a123.8528 123.8528 0 0 0-5.12 46.7456c5.9392 17.664 15.9744 25.6 30.208 34.9184 0.5632 1.4336 28.9792 18.688 30.1568 21.6064-29.5936 9.3696-77.5168-0.4608-98.816-24.064a81.92 81.92 0 0 1-18.3808-32.9728 63.8464 63.8464 0 0 1 5.9392-47.7184c14.1824-22.6304 28.416-44.2368 43.2128-66.56 6.5024-11.264 17.152-26.0608 34.304-32.9216h1.1776c4.7616 14.2336-2.3552 46.6944-2.9184 48.6912z" p-id="1885"></path></svg>